<?xml version="1.0" encoding="utf-8"?>
<!-- Generator: Adobe Illustrator 14.0.0, SVG Export Plug-In . SVG Version: 6.00 Build 43363)  -->
<!DOCTYPE svg PUBLIC "-//W3C//DTD SVG 1.1//EN" "http://www.w3.org/Graphics/SVG/1.1/DTD/svg11.dtd">
<svg version="1.1" id="Ebene_1" xmlns="http://www.w3.org/2000/svg" xmlns:xlink="http://www.w3.org/1999/xlink" x="0px" y="0px"
	 width="1200px" height="1200px" viewBox="0 0 1200 1200" enable-background="new 0 0 1200 1200" xml:space="preserve">
<g>
	<path fill="#FFFFFF" d="M699.164,712.996c-32.603,0-59.019,26.421-59.019,59.013c0,32.593,26.416,59.003,59.019,59.003
		c32.581,0,58.997-26.41,58.997-59.003C758.161,739.417,731.745,712.996,699.164,712.996z M699.164,804.123
		c-17.72,0-32.13-14.405-32.13-32.114c0-17.714,14.41-32.124,32.13-32.124c17.708,0,32.108,14.41,32.108,32.124
		C731.272,789.718,716.872,804.123,699.164,804.123z"/>
	<path fill="#FFFFFF" d="M645.523,440.534c-6.816,0-13.497,0.604-20.004,1.701c-27.259-49.113-79.626-82.367-139.776-82.367
		c-88.244,0-159.782,71.538-159.782,159.777c0,55.095,27.886,103.673,70.312,132.399c-2.29,8.077-3.595,16.574-3.595,25.387
		c0,51.398,41.662,93.055,93.073,93.055c50.715,0,91.883-40.59,92.958-91.059h66.814c36.451,0,69.064-16.349,90.975-42.088
		c11.033-12.961,19.336-28.306,24.047-45.158c2.857-10.246,4.422-21.039,4.422-32.198
		C764.967,494.017,711.484,440.534,645.523,440.534z M645.523,652.539h-93.136l-0.562,26.316
		c-0.759,35.7-30.399,64.742-66.074,64.742c-36.494,0-66.184-29.683-66.184-66.166c0-5.95,0.866-12.026,2.576-18.055l5.301-18.696
		l-16.096-10.902c-36.631-24.799-58.499-65.972-58.499-110.133c0-73.277,59.617-132.889,132.894-132.889
		c48.255,0,92.805,26.258,116.267,68.529l9.229,16.626l18.748-3.162c5.226-0.882,10.451-1.328,15.535-1.328
		c51.035,0,92.555,41.524,92.555,92.561S696.559,652.539,645.523,652.539z"/>
	<path fill="#FFFFFF" d="M820.866,594.24c-13.964,0-26.773,4.873-36.878,12.977c-12.277,9.847-20.508,24.483-21.889,41.089
		c-0.137,1.634-0.252,3.277-0.252,4.947c0,32.592,26.416,59.003,59.019,59.003c32.581,0,58.997-26.411,58.997-59.003
		S853.447,594.24,820.866,594.24z M820.866,685.367c-17.72,0-32.13-14.405-32.13-32.114c0-17.714,14.41-32.124,32.13-32.124
		c17.708,0,32.108,14.41,32.108,32.124C852.975,670.962,838.574,685.367,820.866,685.367z"/>
</g>
<path fill="none" d="M1.487,1.426v1198.511H1200V1.426H1.487z"/>
</svg>
